<svg width="302" height="375" viewBox="0 0 302 375" fill="none" xmlns="http://www.w3.org/2000/svg">
<path fill-rule="evenodd" clip-rule="evenodd" d="M65.5002 4C65.5048 4.01525 65.5094 4.03049 65.514 4.04573C71.3262 23.1428 36.1073 121.327 17.7713 168.031C-36.1266 320.742 80.9209 366.16 149.304 370.248V370.419C149.866 370.396 150.431 370.37 151 370.341C151.569 370.37 152.135 370.396 152.696 370.419V370.248C221.079 366.16 338.127 320.742 284.229 168.031C265.893 121.327 230.674 23.1428 236.486 4.04573C236.491 4.03049 236.495 4.01525 236.5 4H65.5002Z" fill="#C8A181"/>
<path d="M65.514 4.04573L69.3407 2.88108L69.3407 2.88092L65.514 4.04573ZM65.5002 4V0H60.132L61.6673 5.14397L65.5002 4ZM17.7713 168.031L14.048 166.57L14.0226 166.634L13.9994 166.7L17.7713 168.031ZM149.304 370.248H153.304V366.48L149.542 366.255L149.304 370.248ZM149.304 370.419H145.304V374.585L149.467 374.415L149.304 370.419ZM151 370.341L151.201 366.346L151 366.336L150.799 366.346L151 370.341ZM152.696 370.419L152.533 374.415L156.696 374.585V370.419H152.696ZM152.696 370.248L152.458 366.255L148.696 366.48V370.248H152.696ZM284.229 168.031L288.001 166.7L287.977 166.634L287.952 166.57L284.229 168.031ZM236.486 4.04573L232.659 2.88092L232.659 2.88108L236.486 4.04573ZM236.5 4L240.333 5.14309L241.867 0H236.5V4ZM69.3407 2.88092C69.338 2.87232 69.3355 2.86403 69.3332 2.85603L61.6673 5.14397C61.674 5.16647 61.6807 5.18867 61.6874 5.21054L69.3407 2.88092ZM21.4947 169.493C30.6841 146.086 44.1063 109.775 54.5118 76.8925C59.7119 60.4596 64.1832 44.806 66.9916 32.015C68.3949 25.6239 69.4011 19.8674 69.865 15.0421C70.3163 10.3474 70.3086 6.06124 69.3407 2.88108L61.6873 5.21038C62.1725 6.80449 62.3355 9.76403 61.9017 14.2765C61.4804 18.6584 60.5454 24.0705 59.1778 30.2994C56.4444 42.7484 52.0547 58.1406 46.8846 74.4789C36.5497 107.138 23.1946 143.272 14.048 166.57L21.4947 169.493ZM149.542 366.255C115.882 364.243 70.6264 352.046 40.5053 322.04C25.5144 307.106 14.2218 287.722 9.91021 262.796C5.59155 237.83 8.23748 207.063 21.5433 169.363L13.9994 166.7C0.356241 205.356 -2.57863 237.533 2.02728 264.16C6.64026 290.828 18.7776 311.687 34.8592 327.707C66.8831 359.609 114.342 372.165 149.065 374.241L149.542 366.255ZM153.304 370.419V370.248H145.304V370.419H153.304ZM150.799 366.346C150.242 366.374 149.69 366.4 149.141 366.422L149.467 374.415C150.041 374.392 150.62 374.366 151.201 374.336L150.799 366.346ZM152.859 366.422C152.31 366.4 151.758 366.374 151.201 366.346L150.799 374.336C151.38 374.366 151.959 374.392 152.533 374.415L152.859 366.422ZM148.696 370.248V370.419H156.696V370.248H148.696ZM280.457 169.363C293.763 207.063 296.408 237.83 292.09 262.796C287.778 287.722 276.486 307.106 261.495 322.04C231.374 352.046 186.118 364.243 152.458 366.255L152.935 374.241C187.658 372.165 235.117 359.609 267.141 327.707C283.222 311.687 295.36 290.828 299.973 264.16C304.579 237.533 301.644 205.356 288.001 166.7L280.457 169.363ZM232.659 2.88108C231.691 6.06124 231.684 10.3474 232.135 15.0421C232.599 19.8674 233.605 25.6239 235.008 32.015C237.817 44.806 242.288 60.4596 247.488 76.8925C257.894 109.775 271.316 146.086 280.505 169.493L287.952 166.57C278.805 143.272 265.45 107.138 255.115 74.4789C249.945 58.1406 245.556 42.7484 242.822 30.2994C241.455 24.0705 240.52 18.6584 240.098 14.2765C239.664 9.76403 239.828 6.80449 240.313 5.21038L232.659 2.88108ZM232.667 2.85691C232.664 2.8649 232.662 2.87291 232.659 2.88092L240.313 5.21054C240.319 5.18808 240.326 5.1656 240.333 5.14309L232.667 2.85691ZM236.5 0H65.5002V8H236.5V0Z" fill="white"/>
</svg>
