<svg width="244" height="105" viewBox="0 0 244 105" fill="none" xmlns="http://www.w3.org/2000/svg">
<mask id="path-1-inside-1" fill="white">
<path fill-rule="evenodd" clip-rule="evenodd" d="M29.8223 66H19.5C8.73045 66 0 74.7304 0 85.5C0 96.2696 8.73045 105 19.5 105H224.5C235.27 105 244 96.2696 244 85.5C244 74.7304 235.27 66 224.5 66H214.421C201.323 27.6098 164.947 0 122.122 0C79.2968 0 42.9205 27.6098 29.8223 66Z"/>
</mask>
<path fill-rule="evenodd" clip-rule="evenodd" d="M29.8223 66H19.5C8.73045 66 0 74.7304 0 85.5C0 96.2696 8.73045 105 19.5 105H224.5C235.27 105 244 96.2696 244 85.5C244 74.7304 235.27 66 224.5 66H214.421C201.323 27.6098 164.947 0 122.122 0C79.2968 0 42.9205 27.6098 29.8223 66Z" fill="#474749"/>
<path d="M29.8223 66V74H35.5456L37.3937 68.5833L29.8223 66ZM214.421 66L206.85 68.5833L208.698 74H214.421V66ZM19.5 74H29.8223V58H19.5V74ZM8 85.5C8 79.1487 13.1487 74 19.5 74V58C4.31217 58 -8 70.3122 -8 85.5H8ZM19.5 97C13.1487 97 8 91.8513 8 85.5H-8C-8 100.688 4.31217 113 19.5 113V97ZM224.5 97H19.5V113H224.5V97ZM236 85.5C236 91.8513 230.851 97 224.5 97V113C239.688 113 252 100.688 252 85.5H236ZM224.5 74C230.851 74 236 79.1487 236 85.5H252C252 70.3122 239.688 58 224.5 58V74ZM214.421 74H224.5V58H214.421V74ZM221.992 63.4167C207.823 21.8863 168.473 -8 122.122 -8V8C161.42 8 194.823 33.3333 206.85 68.5833L221.992 63.4167ZM122.122 -8C75.7705 -8 36.4205 21.8863 22.2508 63.4167L37.3937 68.5833C49.4206 33.3333 82.823 8 122.122 8V-8Z" fill="white" mask="url(#path-1-inside-1)"/>
</svg>
