<svg width="186" height="72" viewBox="0 0 186 72" fill="none" xmlns="http://www.w3.org/2000/svg">
<path fill-rule="evenodd" clip-rule="evenodd" d="M185.599 68.2526C185.867 65.3665 186 62.2866 186 59C186 10.3989 156.856 0 95 0C33.1441 0 0 5.39894 0 54C0 60.4338 0.580832 66.1631 1.73221 71.2616C21.8065 47.5935 56.0856 32 95 32C132.24 32 165.236 46.2808 185.599 68.2526Z" fill="#494945"/>
<path fill-rule="evenodd" clip-rule="evenodd" d="M185.599 68.2526C185.867 65.3665 186 62.2866 186 59C186 10.3989 156.856 0 95 0C33.1441 0 0 5.39894 0 54C0 60.4338 0.580832 66.1631 1.73221 71.2616C21.8065 47.5935 56.0856 32 95 32C132.24 32 165.236 46.2808 185.599 68.2526Z" fill="#494945"/>
<path fill-rule="evenodd" clip-rule="evenodd" d="M185.599 68.2526C185.867 65.3665 186 62.2866 186 59C186 10.3989 156.856 0 95 0C33.1441 0 0 5.39894 0 54C0 60.4338 0.580832 66.1631 1.73221 71.2616C21.8065 47.5935 56.0856 32 95 32C132.24 32 165.236 46.2808 185.599 68.2526Z" fill="#494945"/>
</svg>
