<svg width="138" height="147" viewBox="0 0 138 147" fill="none" xmlns="http://www.w3.org/2000/svg">
<path fill-rule="evenodd" clip-rule="evenodd" d="M68 147C75.9913 147 83.3745 141.684 89.3473 132.689C93.7843 134.812 98.7534 136 104 136C122.778 136 138 120.778 138 102C138 83.2223 122.778 68 104 68L103.901 68.0001C102.523 29.9759 86.9761 0 68 0C49.0152 0 33.4627 30.0033 32.0974 68.0523C14.2048 69.0393 0 83.8608 0 102C0 120.778 15.2223 136 34 136C38.6494 136 43.0809 135.067 47.1172 133.377C53.0065 141.954 60.2146 147 68 147Z" fill="#CB8251"/>
<path fill-rule="evenodd" clip-rule="evenodd" d="M68 147C75.9913 147 83.3745 141.684 89.3473 132.689C93.7843 134.812 98.7534 136 104 136C122.778 136 138 120.778 138 102C138 83.2223 122.778 68 104 68L103.901 68.0001C102.523 29.9759 86.9761 0 68 0C49.0152 0 33.4627 30.0033 32.0974 68.0523C14.2048 69.0393 0 83.8608 0 102C0 120.778 15.2223 136 34 136C38.6494 136 43.0809 135.067 47.1172 133.377C53.0065 141.954 60.2146 147 68 147Z" fill="#CB8251"/>
<path fill-rule="evenodd" clip-rule="evenodd" d="M68 147C75.9913 147 83.3745 141.684 89.3473 132.689C93.7843 134.812 98.7534 136 104 136C122.778 136 138 120.778 138 102C138 83.2223 122.778 68 104 68L103.901 68.0001C102.523 29.9759 86.9761 0 68 0C49.0152 0 33.4627 30.0033 32.0974 68.0523C14.2048 69.0393 0 83.8608 0 102C0 120.778 15.2223 136 34 136C38.6494 136 43.0809 135.067 47.1172 133.377C53.0065 141.954 60.2146 147 68 147Z" fill="#CB8251"/>
<path fill-rule="evenodd" clip-rule="evenodd" d="M68 147C75.9913 147 83.3745 141.684 89.3473 132.689C93.7843 134.812 98.7534 136 104 136C122.778 136 138 120.778 138 102C138 83.2223 122.778 68 104 68L103.901 68.0001C102.523 29.9759 86.9761 0 68 0C49.0152 0 33.4627 30.0033 32.0974 68.0523C14.2048 69.0393 0 83.8608 0 102C0 120.778 15.2223 136 34 136C38.6494 136 43.0809 135.067 47.1172 133.377C53.0065 141.954 60.2146 147 68 147Z" fill="#CB8251"/>
</svg>
